<svg class="svg-icon" style="width: 1em;height: 1em;vertical-align: middle;fill: currentColor;overflow: hidden;" viewBox="0 0 1024 1024" version="1.1" xmlns="http://www.w3.org/2000/svg"><path d="M416 704h-96V96a32 32 0 0 0-32-32H224a32 32 0 0 0-32 32v608H96c-28.38 0-42.72 34.48-22.58 54.62l160 192a32 32 0 0 0 45.24 0l160-192C458.7 738.52 444.44 704 416 704z m480-128H640a32 32 0 0 0-32 32v64a32 32 0 0 0 32 32h112l-122.52 140.9A64 64 0 0 0 608 892.74V928a32 32 0 0 0 32 32h256a32 32 0 0 0 32-32v-64a32 32 0 0 0-32-32h-112l122.52-140.9A64 64 0 0 0 928 643.26V608a32 32 0 0 0-32-32z m62.12-170.76l-118.54-320A32 32 0 0 0 809.44 64h-82.88a32 32 0 0 0-30.14 21.24l-118.54 320A32 32 0 0 0 608 448h49.66a32 32 0 0 0 30.46-22.16l8.84-25.84h142l8.82 25.84A32 32 0 0 0 878.32 448H928a32 32 0 0 0 30.12-42.76zM735.22 288L768 192l32.78 96z"  /></svg>